<svg width="33" height="33" viewBox="0 0 33 33" fill="none" xmlns="http://www.w3.org/2000/svg">
<g clip-path="url(#clip0_63_138)">
<path d="M16.4691 0.666504C13.3437 0.666504 10.2884 1.5933 7.68972 3.3297C5.09102 5.0661 3.06558 7.53411 1.86952 10.4216C0.673473 13.3092 0.360531 16.4865 0.970273 19.5519C1.58001 22.6173 3.08505 25.433 5.29507 27.643C7.50508 29.853 10.3208 31.3581 13.3862 31.9678C16.4516 32.5775 19.6289 32.2646 22.5164 31.0686C25.404 29.8725 27.872 27.8471 29.6084 25.2484C31.3448 22.6497 32.2716 19.5944 32.2716 16.469C32.2716 14.3938 31.8628 12.3389 31.0687 10.4216C30.2745 8.50439 29.1105 6.76233 27.6431 5.29494C26.1757 3.82755 24.4337 2.66354 22.5164 1.8694C20.5992 1.07525 18.5443 0.666504 16.4691 0.666504ZM16.4691 29.1109C13.9688 29.1109 11.5246 28.3695 9.4456 26.9804C7.36663 25.5913 5.74628 23.6169 4.78944 21.3068C3.8326 18.9968 3.58225 16.4549 4.07004 14.0026C4.55783 11.5503 5.76186 9.29776 7.52988 7.52975C9.29789 5.76173 11.5505 4.5577 14.0028 4.06991C16.4551 3.58212 18.997 3.83247 21.307 4.78931C23.617 5.74615 25.5914 7.36651 26.9805 9.44547C28.3696 11.5244 29.1111 13.9686 29.1111 16.469C29.1111 19.8218 27.7792 23.0374 25.4083 25.4082C23.0375 27.779 19.822 29.1109 16.4691 29.1109Z" fill="white"/>
<path d="M14.1303 16.1214C14.6458 16.0166 15.1071 15.7316 15.4315 15.3175C15.7558 14.9034 15.922 14.3872 15.9002 13.8616C15.9002 12.2814 14.6834 11.3333 12.8345 11.3333H8.56787V21.6049H12.8345C14.8889 21.5258 16.4691 20.4671 16.4691 18.634C16.4839 18.3146 16.4349 17.9955 16.3247 17.6954C16.2146 17.3952 16.0457 17.1201 15.8279 16.8861C15.6101 16.652 15.3477 16.4639 15.0562 16.3326C14.7647 16.2013 14.4499 16.1295 14.1303 16.1214ZM10.559 12.7871H12.3763C13.3244 12.7871 13.8775 13.2928 13.8775 14.1303C13.8775 14.9678 13.277 15.5367 11.9022 15.5367H10.559V12.7871ZM12.1392 20.0088H10.559V16.9431H12.5027C13.6879 16.9431 14.3516 17.5436 14.3516 18.5234C14.3516 19.5031 13.6879 20.0088 12.076 20.0088H12.1392ZM20.8148 13.7826C20.3356 13.7427 19.8535 13.8069 19.4015 13.9708C18.9494 14.1347 18.5382 14.3944 18.196 14.7322C17.8537 15.0699 17.5886 15.4777 17.4187 15.9275C17.2488 16.3773 17.1783 16.8585 17.2118 17.3382V18.0493C17.1729 18.5427 17.2423 19.0386 17.415 19.5024C17.5878 19.9661 17.8598 20.3866 18.212 20.7342C18.5642 21.0819 18.9881 21.3485 19.454 21.5152C19.92 21.682 20.4168 21.7449 20.9096 21.6997C21.6896 21.7923 22.4762 21.5912 23.116 21.1354C23.7559 20.6797 24.203 20.002 24.3703 19.2345H22.4582C22.3593 19.5632 22.1449 19.845 21.8544 20.028C21.564 20.211 21.2172 20.2827 20.878 20.23C20.6364 20.2361 20.3963 20.1903 20.1739 20.0957C19.9516 20.0011 19.752 19.86 19.5888 19.6818C19.4256 19.5036 19.3024 19.2925 19.2277 19.0627C19.153 18.8328 19.1283 18.5897 19.1555 18.3495V18.1283H24.3703V17.3856C24.4076 16.907 24.3415 16.4261 24.1767 15.9753C24.0118 15.5244 23.752 15.1143 23.4148 14.7727C23.0777 14.431 22.671 14.1658 22.2224 13.995C21.7739 13.8242 21.2938 13.7518 20.8148 13.7826ZM22.395 16.9431H19.2029C19.1831 16.724 19.2093 16.5031 19.2798 16.2946C19.3503 16.0862 19.4636 15.8947 19.6123 15.7326C19.7611 15.5704 19.9421 15.4412 20.1437 15.353C20.3453 15.2648 20.5631 15.2198 20.7832 15.2207C21.0032 15.2198 21.221 15.2648 21.4227 15.353C21.6243 15.4412 21.8053 15.5704 21.954 15.7326C22.1028 15.8947 22.2161 16.0862 22.2866 16.2946C22.357 16.5031 22.3832 16.724 22.3634 16.9431H22.395ZM18.4444 12.0444H23.1852V12.8345H18.4444V12.0444Z" fill="white"/>
</g>
<defs>
<clipPath id="clip0_63_138">
<rect width="32.0001" height="32" fill="white" transform="translate(0.666626 0.666504)"/>
</clipPath>
</defs>
</svg>
