<svg width="37" height="37" viewBox="0 0 37 37" fill="none" xmlns="http://www.w3.org/2000/svg">
<g clip-path="url(#clip0_63_119)">
<path d="M28.2291 0.333374H9.10413C4.44422 0.333374 0.666626 4.11097 0.666626 8.77087V27.8959C0.666626 32.5558 4.44422 36.3334 9.10413 36.3334H28.2291C32.889 36.3334 36.6666 32.5558 36.6666 27.8959V8.77087C36.6666 4.11097 32.889 0.333374 28.2291 0.333374Z" fill="#0277BD"/>
<path d="M8.22564 14.7687L8.62811 19.2605H18.6801V14.7687H8.22564ZM18.68 5.67712H7.41663L7.825 10.169H18.68V5.67712ZM18.68 31.1079V26.4345L18.6603 26.4397L13.6577 25.089L13.3379 21.5064H8.82878L9.45808 28.5593L18.6593 31.1137L18.68 31.1079Z" fill="#EBEBEB"/>
<path d="M24.1958 19.2605L23.6743 25.086L18.6646 26.4383V31.1114L27.8731 28.5593L27.9406 27.8004L28.9961 15.975L29.1057 14.7687L29.9167 5.67712H18.6646V10.169H24.9939L24.5853 14.7687H18.6646V19.2605H24.1958Z" fill="white"/>
</g>
<defs>
<clipPath id="clip0_63_119">
<rect width="36" height="36" fill="white" transform="translate(0.666626 0.333374)"/>
</clipPath>
</defs>
</svg>
