<svg width="36" height="37" viewBox="0 0 36 37" fill="none" xmlns="http://www.w3.org/2000/svg">
<g clip-path="url(#clip0_63_102)">
<path d="M27.5624 0.333374H8.43738C3.77748 0.333374 -0.00012207 4.11097 -0.00012207 8.77087V27.8959C-0.00012207 32.5558 3.77748 36.3334 8.43738 36.3334H27.5624C32.2223 36.3334 35.9999 32.5558 35.9999 27.8959V8.77087C35.9999 4.11097 32.2223 0.333374 27.5624 0.333374Z" fill="#F4F2ED"/>
<mask id="mask0_63_102" style="mask-type:luminance" maskUnits="userSpaceOnUse" x="8" y="4" width="20" height="29">
<path d="M8.578 4.27087H27.3318V32.3959H8.578V4.27087Z" fill="white"/>
</mask>
<g mask="url(#mask0_63_102)">
<path d="M13.2674 32.3959C15.8549 32.3959 17.9549 30.296 17.9549 27.7085V23.0209H13.2674C10.6799 23.0209 8.57983 25.121 8.57983 27.7085C8.57983 30.296 10.6799 32.3959 13.2674 32.3959Z" fill="#0ACF83"/>
<path d="M8.57983 18.3333C8.57983 15.7458 10.6799 13.6459 13.2674 13.6459H17.9549V23.0208H13.2674C10.6799 23.0208 8.57983 20.9208 8.57983 18.3333Z" fill="#A259FF"/>
<path d="M8.57983 8.95833C8.57983 6.37083 10.6799 4.27087 13.2674 4.27087H17.9549V13.6459H13.2674C10.6799 13.6459 8.57983 11.5458 8.57983 8.95833Z" fill="#F24E1E"/>
<path d="M17.9548 4.27087H22.6423C25.2298 4.27087 27.3299 6.37083 27.3299 8.95833C27.3299 11.5458 25.2298 13.6459 22.6423 13.6459H17.9548V4.27087Z" fill="#FF7262"/>
<path d="M27.3299 18.3333C27.3299 20.9208 25.2298 23.0208 22.6423 23.0208C20.0548 23.0208 17.9548 20.9208 17.9548 18.3333C17.9548 15.7458 20.0548 13.6459 22.6423 13.6459C25.2298 13.6459 27.3299 15.7458 27.3299 18.3333Z" fill="#1ABCFE"/>
</g>
</g>
<defs>
<clipPath id="clip0_63_102">
<rect width="36" height="36" fill="white" transform="translate(-0.00012207 0.333374)"/>
</clipPath>
</defs>
</svg>
