<svg width="37" height="37" viewBox="0 0 37 37" fill="none" xmlns="http://www.w3.org/2000/svg">
<g clip-path="url(#clip0_63_114)">
<path d="M27.8958 0.333374H8.77075C4.11085 0.333374 0.333252 4.11097 0.333252 8.77087V27.8959C0.333252 32.5558 4.11085 36.3334 8.77075 36.3334H27.8958C32.5557 36.3334 36.3333 32.5558 36.3333 27.8959V8.77087C36.3333 4.11097 32.5557 0.333374 27.8958 0.333374Z" fill="#E14E1D"/>
<path d="M7.08325 5.67712L8.29403 19.2605H23.8626L23.3402 25.0866L18.3275 26.442L13.3242 25.0886L12.9896 21.3477H8.48106L9.12583 28.5591L18.3265 31.1145L27.5388 28.5591L28.774 14.7692H12.4023L11.9912 10.1694H29.1809L29.5833 5.67712H7.08325Z" fill="white"/>
<path d="M18.3333 5.67712H7.08325L8.29403 19.2605H18.3333V14.7692H12.4023L11.9912 10.1694H18.3333V5.67712ZM18.3333 26.44L18.3275 26.442L13.3242 25.0886L12.9896 21.3477H8.48106L9.12583 28.5591L18.3265 31.1145L18.3334 31.1125L18.3333 26.44Z" fill="#EBEBEB"/>
</g>
<defs>
<clipPath id="clip0_63_114">
<rect width="36" height="36" fill="white" transform="translate(0.333252 0.333374)"/>
</clipPath>
</defs>
</svg>
