<svg width="36" height="37" viewBox="0 0 36 37" fill="none" xmlns="http://www.w3.org/2000/svg">
<g clip-path="url(#clip0_63_82)">
<path d="M27.5624 0.333374H8.43738C3.77748 0.333374 -0.00012207 4.11097 -0.00012207 8.77087V27.8959C-0.00012207 32.5558 3.77748 36.3334 8.43738 36.3334H27.5624C32.2223 36.3334 35.9999 32.5558 35.9999 27.8959V8.77087C35.9999 4.11097 32.2223 0.333374 27.5624 0.333374Z" fill="#330000"/>
<path d="M17.3999 21.7552H11.8199L10.6798 25.2803C10.6499 25.4153 10.5299 25.5053 10.3949 25.4902H7.57482C7.40987 25.4902 7.36487 25.4002 7.40987 25.2202L12.2399 11.3152C12.2849 11.1653 12.3299 11.0002 12.3898 10.8202C12.4499 10.5052 12.4798 10.1753 12.4798 9.84528C12.4649 9.77033 12.5248 9.69524 12.5999 9.68033H16.4848C16.6049 9.68033 16.6648 9.72533 16.6799 9.80028L22.1548 25.2503C22.1998 25.4153 22.1548 25.4902 22.0049 25.4902H18.8698C18.7649 25.5053 18.6599 25.4303 18.6299 25.3253L17.3999 21.7552ZM12.6899 18.7103H16.4999C16.4099 18.3953 16.2899 18.0202 16.1549 17.6303C16.0199 17.2253 15.8849 16.7903 15.7499 16.3403C15.5999 15.8753 15.4649 15.4253 15.3148 14.9602C15.1649 14.4953 15.0299 14.0602 14.9098 13.6253C14.7899 13.2054 14.6848 12.8153 14.5799 12.4553H14.5498C14.4148 13.1003 14.2499 13.7454 14.0399 14.3903C13.8149 15.1103 13.5899 15.8602 13.3499 16.6103C13.1562 17.3183 12.936 18.0188 12.6899 18.7103ZM25.4999 12.3052C25.0049 12.3203 24.5249 12.1252 24.1649 11.7803C23.82 11.4052 23.64 10.9102 23.6549 10.4003C23.64 9.89028 23.8349 9.41033 24.1949 9.06524C24.5549 8.72014 25.035 8.54028 25.53 8.54028C26.115 8.54028 26.565 8.72028 26.8949 9.06524C27.2273 9.42888 27.4049 9.90783 27.3899 10.4003C27.4049 10.9102 27.2249 11.4052 26.8649 11.7803C26.52 12.1403 26.0099 12.3353 25.4999 12.3052ZM23.82 25.3253V13.7753C23.82 13.6253 23.8799 13.5652 24.0149 13.5652H26.9849C27.1199 13.5652 27.1799 13.6403 27.1799 13.7753V25.3253C27.1799 25.4902 27.1199 25.5653 26.9849 25.5653H24.045C23.8949 25.5653 23.82 25.4753 23.82 25.3253Z" fill="#FF9A00"/>
</g>
<defs>
<clipPath id="clip0_63_82">
<rect width="36" height="36" fill="white" transform="translate(-0.00012207 0.333374)"/>
</clipPath>
</defs>
</svg>
