<svg width="37" height="37" viewBox="0 0 37 37" fill="none" xmlns="http://www.w3.org/2000/svg">
<g clip-path="url(#clip0_63_86)">
<path d="M30.3517 0.333374H6.30872C3.00849 0.333374 0.33313 3.07339 0.33313 6.45337V30.1558C0.33313 33.5358 3.00849 36.2758 6.30872 36.2758H30.3517C33.6519 36.2758 36.3273 33.5358 36.3273 30.1558V6.45337C36.3273 3.07339 33.6519 0.333374 30.3517 0.333374Z" fill="#49021F"/>
<path d="M13.4048 9.73616V25.4889C13.4048 25.6538 13.3323 25.7363 13.1874 25.7363H10.2657C10.1367 25.7363 10.0724 25.6538 10.0726 25.4889V9.73616C10.0726 9.60435 10.145 9.5384 10.2899 9.5383H13.2116C13.2361 9.53474 13.2612 9.5367 13.2849 9.54405C13.3087 9.55139 13.3306 9.56395 13.3491 9.58085C13.3677 9.59775 13.3824 9.61858 13.3922 9.6419C13.4021 9.66521 13.4069 9.69045 13.4063 9.71585L13.4048 9.73616ZM22.2045 25.982L22.049 25.9835C20.9376 26.0009 19.8364 25.7644 18.8255 25.2912C17.8838 24.8448 17.0965 24.1161 16.5679 23.2015C16.0338 22.2929 15.7603 21.1606 15.7473 19.8045L15.7469 19.7023C15.7378 18.5673 16.0211 17.4499 16.568 16.4627C17.1163 15.4841 17.9159 14.6782 18.88 14.1323L18.9584 14.0886C20.0045 13.4951 21.2681 13.1983 22.7493 13.1983L22.7805 13.1985L22.8499 13.2001L22.9283 13.2032L23.0159 13.2079L23.1125 13.214L23.2181 13.222L23.4567 13.242L23.5219 13.2477V8.37622C23.5219 8.26092 23.5702 8.20318 23.6667 8.20299H26.7092C26.7289 8.2001 26.749 8.20194 26.7678 8.20837C26.7867 8.2148 26.8038 8.22565 26.8179 8.24004C26.8319 8.25443 26.8425 8.27198 26.8488 8.2913C26.8551 8.31061 26.8569 8.33116 26.8541 8.35131V22.9666C26.855 23.2719 26.8671 23.5771 26.8903 23.8816L26.9131 24.2004L26.9332 24.4972L26.9507 24.7718C26.9536 24.8231 26.9414 24.8742 26.9156 24.9184C26.8897 24.9625 26.8515 24.9977 26.8058 25.0192C26.0209 25.3544 25.2034 25.603 24.3671 25.7609C23.6535 25.8959 22.9302 25.9699 22.2046 25.982M23.5221 22.9171V16.1659C23.3916 16.1297 23.2583 16.1049 23.1237 16.0917C22.9593 16.0747 22.794 16.0665 22.6287 16.067C22.0427 16.0611 21.4637 16.1966 20.9385 16.4627C20.427 16.7233 19.9903 17.1152 19.6708 17.6003C19.3407 18.0948 19.1757 18.746 19.1758 19.5539C19.1641 20.093 19.25 20.6295 19.4293 21.1365C19.5752 21.545 19.8059 21.9163 20.1054 22.2247C20.3922 22.5085 20.7393 22.7201 21.1196 22.8429C21.5212 22.976 21.941 23.0429 22.3631 23.0409C22.5883 23.0409 22.7976 23.0326 22.9909 23.016C23.1451 23.0041 23.2979 22.9781 23.4475 22.9382L23.5221 22.9171Z" fill="#FF3366"/>
</g>
<defs>
<clipPath id="clip0_63_86">
<rect width="36" height="36" fill="white" transform="translate(0.33313 0.333374)"/>
</clipPath>
</defs>
</svg>
