<svg width="36" height="37" viewBox="0 0 36 37" fill="none" xmlns="http://www.w3.org/2000/svg">
<g clip-path="url(#clip0_63_124)">
<path d="M27.5625 0.333374H8.4375C3.7776 0.333374 0 4.11097 0 8.77087V27.8959C0 32.5558 3.7776 36.3334 8.4375 36.3334H27.5625C32.2224 36.3334 36 32.5558 36 27.8959V8.77087C36 4.11097 32.2224 0.333374 27.5625 0.333374Z" fill="#F0DB4F"/>
<path d="M9.46572 30.4175L12.2206 28.7503C12.7521 29.6926 13.2356 30.49 14.3953 30.49C15.507 30.49 16.2078 30.0551 16.2078 28.3637V16.8609H19.591V28.4115C19.591 31.9155 17.537 33.5104 14.5403 33.5104C11.834 33.5104 10.2631 32.1088 9.46558 30.4172M21.4285 30.055L24.1831 28.4602C24.9083 29.6444 25.8508 30.5143 27.518 30.5143C28.9199 30.5143 29.8137 29.8134 29.8137 28.8467C29.8137 27.6869 28.8955 27.276 27.3489 26.5996L26.5033 26.2369C24.0625 25.198 22.4433 23.893 22.4433 21.1381C22.4433 18.6007 24.3766 16.6674 27.3974 16.6674C29.5481 16.6674 31.0947 17.4166 32.2062 19.374L29.5721 21.0655C28.9921 20.0265 28.364 19.6157 27.3974 19.6157C26.4065 19.6157 25.7782 20.244 25.7782 21.0655C25.7782 22.0804 26.4065 22.4913 27.8564 23.1198L28.7021 23.4822C31.5777 24.7148 33.1969 25.9711 33.1969 28.7984C33.1969 31.8435 30.8046 33.5107 27.5906 33.5107C24.4492 33.5107 22.4192 32.0125 21.4285 30.055Z" fill="#323330"/>
</g>
<defs>
<clipPath id="clip0_63_124">
<rect width="36" height="36" fill="white" transform="translate(0 0.333374)"/>
</clipPath>
</defs>
</svg>
