<svg width="37" height="37" viewBox="0 0 37 37" fill="none" xmlns="http://www.w3.org/2000/svg">
<g clip-path="url(#clip0_63_72)">
<path d="M30.6851 0.333374H6.64209C3.34187 0.333374 0.666504 3.07339 0.666504 6.45337V30.1558C0.666504 33.5358 3.34187 36.2758 6.64209 36.2758H30.6851C33.9853 36.2758 36.6606 33.5358 36.6606 30.1558V6.45337C36.6606 3.07339 33.9853 0.333374 30.6851 0.333374Z" fill="#001E36"/>
<path d="M19.5694 25.7363H10.0559C9.89472 25.7363 9.81425 25.6456 9.81444 25.4641V9.76109C9.81021 9.73086 9.81291 9.70004 9.82233 9.67106C9.83175 9.64209 9.84763 9.61576 9.86871 9.59416C9.88979 9.57256 9.91549 9.55628 9.94377 9.54661C9.97206 9.53695 10.0022 9.53416 10.0317 9.53847H12.9776C13.0005 9.53515 13.0239 9.53735 13.0459 9.54488C13.0679 9.55242 13.0879 9.56509 13.1043 9.58189C13.1207 9.59869 13.133 9.61916 13.1404 9.64169C13.1477 9.66422 13.1498 9.68819 13.1466 9.7117V22.6206H20.0764C20.2212 22.6206 20.2776 22.6947 20.2456 22.8431L19.8108 25.5138C19.8098 25.5503 19.8006 25.586 19.7838 25.6182C19.767 25.6504 19.7432 25.6781 19.7142 25.6993C19.6695 25.7231 19.6199 25.7358 19.5694 25.7365M21.9596 13.4458H24.5916C24.7384 13.4472 24.8666 13.548 24.9054 13.6932C24.9629 13.8015 25.0037 13.9182 25.0263 14.0393C25.0599 14.1986 25.084 14.3593 25.0986 14.5216C25.1145 14.6947 25.1226 14.8801 25.1228 15.078C25.5741 14.5397 26.1184 14.0912 26.7285 13.7549C27.4137 13.3754 28.1831 13.1838 28.9621 13.1985C28.9916 13.1942 29.0217 13.197 29.05 13.2067C29.0782 13.2163 29.1039 13.2326 29.125 13.2542C29.1461 13.2758 29.162 13.3021 29.1714 13.3311C29.1808 13.3601 29.1835 13.3909 29.1793 13.4211V16.4135C29.1793 16.5289 29.0988 16.5866 28.9379 16.5865C27.9652 16.5249 26.9923 16.703 26.1007 17.1058C25.7977 17.2402 25.5231 17.4334 25.2918 17.6746V25.514C25.2918 25.6623 25.2274 25.7365 25.0986 25.7365H22.1769C22.1441 25.7413 22.1106 25.7382 22.0792 25.7275C22.0478 25.7168 22.0192 25.6987 21.9958 25.6747C21.9724 25.6507 21.9547 25.6214 21.9442 25.5892C21.9338 25.557 21.9308 25.5228 21.9355 25.4892V16.9821C21.9355 16.775 21.9342 16.5611 21.9315 16.3403L21.9266 16.0042C21.9257 15.9473 21.9246 15.89 21.9234 15.8323C21.9172 15.5316 21.9089 15.231 21.8983 14.9304L21.8871 14.6329C21.8764 14.2931 21.8442 13.9545 21.7906 13.619C21.785 13.5966 21.7848 13.5731 21.79 13.5506C21.7952 13.528 21.8057 13.5071 21.8206 13.4897C21.8355 13.4723 21.8543 13.4589 21.8755 13.4506C21.8966 13.4424 21.9194 13.4395 21.9418 13.4423L21.9596 13.4458Z" fill="#31A8FF"/>
</g>
<defs>
<clipPath id="clip0_63_72">
<rect width="36" height="36" fill="white" transform="translate(0.666504 0.333374)"/>
</clipPath>
</defs>
</svg>
