<svg width="37" height="37" viewBox="0 0 37 37" fill="none" xmlns="http://www.w3.org/2000/svg">
<g clip-path="url(#clip0_63_68)">
<path d="M27.8955 0.333374H8.77051C4.11061 0.333374 0.333008 4.11097 0.333008 8.77087V27.8959C0.333008 32.5558 4.11061 36.3334 8.77051 36.3334H27.8955C32.5554 36.3334 36.333 32.5558 36.333 27.8959V8.77087C36.333 4.11097 32.5554 0.333374 27.8955 0.333374Z" fill="#001E36"/>
<path d="M8.43311 25.3702V9.93525C8.43311 9.8302 8.47811 9.7703 8.58315 9.7703C8.83811 9.7703 9.07815 9.7703 9.42311 9.75525C9.78311 9.7402 10.1582 9.7402 10.5632 9.7253C10.9682 9.71025 11.4031 9.71025 11.8682 9.6952C12.3331 9.6803 12.7831 9.6803 13.2331 9.6803C14.4631 9.6803 15.4831 9.8302 16.3232 10.1452C17.0761 10.401 17.7627 10.8212 18.3331 11.3753C18.8163 11.8603 19.1898 12.4434 19.4282 13.0853C19.6532 13.7153 19.7731 14.3603 19.7731 15.0353C19.7731 16.3253 19.4731 17.3903 18.8731 18.2303C18.2731 19.0703 17.4331 19.7003 16.4582 20.0603C15.4381 20.4353 14.3131 20.5703 13.0832 20.5703C12.7232 20.5703 12.4831 20.5703 12.3331 20.5553C12.183 20.5402 11.9731 20.5402 11.6882 20.5402V25.3552C11.7031 25.4603 11.6281 25.5503 11.5231 25.5653H8.61311C8.49315 25.5653 8.43311 25.5052 8.43311 25.3702ZM11.7031 12.6652V17.7052C11.9132 17.7203 12.1081 17.7353 12.2881 17.7353H13.0832C13.6682 17.7353 14.2532 17.6453 14.8081 17.4653C15.2882 17.3303 15.7081 17.0452 16.0381 16.6702C16.3531 16.2953 16.5032 15.7853 16.5032 15.1253C16.5172 14.6565 16.3975 14.1934 16.1581 13.7902C15.9031 13.4003 15.5431 13.1003 15.1082 12.9352C14.5531 12.7102 13.9531 12.6202 13.3381 12.6353C12.9482 12.6353 12.6031 12.6353 12.3182 12.6503C12.0181 12.6353 11.8081 12.6503 11.7031 12.6652ZM29.1331 16.7903C28.6831 16.5503 28.2032 16.3853 27.6931 16.2803C27.1381 16.1603 26.5832 16.0852 26.0131 16.0852C25.7131 16.0703 25.3981 16.1153 25.1131 16.1903C24.9182 16.2353 24.7531 16.3403 24.6482 16.4902C24.5731 16.6103 24.5281 16.7602 24.5281 16.8952C24.5281 17.0302 24.5881 17.1652 24.6781 17.2853C24.8131 17.4503 24.9931 17.5853 25.1882 17.6903C25.5359 17.8704 25.8913 18.0355 26.2531 18.1853C27.0631 18.4553 27.8432 18.8302 28.5632 19.2802C29.0582 19.5952 29.4632 20.0153 29.7481 20.5253C29.9881 21.0053 30.1081 21.5302 30.0932 22.0702C30.1081 22.7753 29.8981 23.4802 29.5082 24.0652C29.0897 24.664 28.5059 25.1279 27.8281 25.4002C27.0931 25.7152 26.1931 25.8803 25.1131 25.8803C24.4232 25.8803 23.7482 25.8202 23.0732 25.6853C22.5441 25.5939 22.0296 25.4325 21.5432 25.2053C21.4381 25.1453 21.3632 25.0402 21.3781 24.9202V22.3103C21.3781 22.2653 21.3931 22.2052 21.4381 22.1753C21.4831 22.1453 21.5281 22.1602 21.5731 22.1903C22.1581 22.5353 22.7731 22.7753 23.4332 22.9252C24.0031 23.0753 24.6032 23.1502 25.2031 23.1502C25.7732 23.1502 26.1782 23.0752 26.4482 22.9402C26.6881 22.8352 26.8532 22.5803 26.8532 22.3103C26.8532 22.1003 26.7331 21.9053 26.4932 21.7102C26.2531 21.5153 25.7581 21.2903 25.0231 21.0053C24.2691 20.7395 23.5531 20.3764 22.8932 19.9253C22.4231 19.5903 22.0336 19.1547 21.7531 18.6502C21.5131 18.1703 21.3931 17.6453 21.4082 17.1202C21.4082 16.4753 21.5882 15.8602 21.9181 15.3053C22.2931 14.7053 22.8482 14.2253 23.4931 13.9252C24.1982 13.5652 25.0831 13.4003 26.1481 13.4003C26.7632 13.4003 27.3932 13.4453 28.0081 13.5353C28.4581 13.5953 28.8931 13.7153 29.2981 13.8802C29.3581 13.8953 29.4182 13.9553 29.4481 14.0152C29.4632 14.0753 29.4781 14.1353 29.4781 14.1952V16.6403C29.4781 16.7003 29.4481 16.7602 29.4031 16.7903C29.2681 16.8203 29.1932 16.8203 29.1331 16.7903Z" fill="#31A8FF"/>
</g>
<defs>
<clipPath id="clip0_63_68">
<rect width="36" height="36" fill="white" transform="translate(0.333008 0.333374)"/>
</clipPath>
</defs>
</svg>
