<svg width="37" height="37" viewBox="0 0 37 37" fill="none" xmlns="http://www.w3.org/2000/svg">
<g clip-path="url(#clip0_63_95)">
<path d="M28.2291 0.333374H9.10413C4.44422 0.333374 0.666626 4.11097 0.666626 8.77087V27.8959C0.666626 32.5558 4.44422 36.3334 9.10413 36.3334H28.2291C32.889 36.3334 36.6666 32.5558 36.6666 27.8959V8.77087C36.6666 4.11097 32.889 0.333374 28.2291 0.333374Z" fill="#242938"/>
<path d="M5.40793 14.4252C5.40793 14.4252 4.74207 13.9452 5.5411 13.3044L7.40241 11.6399C7.40241 11.6399 7.9351 11.0795 8.49816 11.5678L25.6754 24.5727V30.8088C25.6754 30.8088 25.6671 31.7881 24.4103 31.6798L5.40793 14.4252Z" fill="#2489CA"/>
<path d="M9.83538 18.4447L5.40794 22.4698C5.40794 22.4698 4.95288 22.8083 5.40794 23.4131L7.46345 25.2827C7.46345 25.2827 7.9517 25.8071 8.67297 25.2106L13.3668 21.6515L9.83538 18.4447Z" fill="#1070B3"/>
<path d="M17.6082 18.478L25.7281 12.2779L25.6753 6.07504C25.6753 6.07504 25.3285 4.72124 24.1718 5.42591L13.3667 15.26L17.6082 18.478Z" fill="#0877B9"/>
<path d="M24.4103 31.6882C24.8819 32.1708 25.4534 32.0128 25.4534 32.0128L31.7811 28.8947C32.5911 28.3426 32.4773 27.6575 32.4773 27.6575V9.03774C32.4773 8.21931 31.6395 7.93651 31.6395 7.93651L26.1553 5.29276C24.9569 4.55209 24.1718 5.42593 24.1718 5.42593C24.1718 5.42593 25.1814 4.69918 25.6753 6.07506V30.695C25.676 30.8629 25.639 31.0288 25.5672 31.1806C25.4229 31.4718 25.1094 31.7436 24.3577 31.6299L24.4103 31.6882Z" fill="#3C99D4"/>
</g>
<defs>
<clipPath id="clip0_63_95">
<rect width="36" height="36" fill="white" transform="translate(0.666626 0.333374)"/>
</clipPath>
</defs>
</svg>
