<svg width="33" height="32" viewBox="0 0 33 32" fill="none" xmlns="http://www.w3.org/2000/svg">
<g id="logos:whatsapp-icon" clip-path="url(#clip0_63_47)">
<path id="Vector" d="M1.18682 15.8085C1.18607 18.4971 1.89389 21.1224 3.2398 23.4363L1.05811 31.3423L9.21004 29.2208C11.4648 30.4391 13.991 31.0774 16.5582 31.0776H16.5649C25.0396 31.0776 31.9383 24.2332 31.9419 15.8205C31.9435 11.744 30.3454 7.9107 27.4419 5.02673C24.5389 2.14301 20.678 0.554046 16.5643 0.552185C8.08857 0.552185 1.19045 7.39622 1.18695 15.8085" fill="url(#paint0_linear_63_47)"/>
<path id="Vector_2" d="M0.637866 15.8035C0.636992 18.5889 1.37018 21.308 2.76408 23.7048L0.50415 31.8942L8.94838 29.6967C11.275 30.9558 13.8946 31.6196 16.5602 31.6206H16.5671C25.3458 31.6206 32.4923 24.53 32.496 15.8162C32.4975 11.5932 30.8419 7.62208 27.8347 4.63479C24.8271 1.64788 20.8281 0.00173643 16.5671 0C7.7868 0 0.641366 7.08961 0.637866 15.8035ZM5.66671 23.292L5.35142 22.7953C4.02601 20.7036 3.32643 18.2865 3.32743 15.8045C3.33018 8.56174 9.26918 2.66915 16.5721 2.66915C20.1087 2.67064 23.4323 4.03895 25.9322 6.52155C28.4319 9.0044 29.8075 12.3049 29.8066 15.8152C29.8033 23.058 23.8642 28.9513 16.5671 28.9513H16.5618C14.1858 28.9501 11.8555 28.3168 9.82328 27.12L9.33966 26.8353L4.32868 28.1393L5.66671 23.292Z" fill="url(#paint1_linear_63_47)"/>
<path id="Vector_3" d="M12.5858 9.19668C12.2877 8.53894 11.9739 8.52567 11.6903 8.51413C11.4581 8.50421 11.1927 8.50496 10.9275 8.50496C10.6621 8.50496 10.2308 8.60406 9.86629 8.9991C9.50138 9.39451 8.47314 10.35 8.47314 12.2935C8.47314 14.2369 9.89941 16.1153 10.0982 16.3791C10.2973 16.6424 12.8517 20.7582 16.8971 22.3416C20.2593 23.6575 20.9435 23.3957 21.6732 23.3298C22.403 23.264 24.0281 22.3745 24.3596 21.4521C24.6914 20.5298 24.6914 19.7392 24.5919 19.574C24.4925 19.4094 24.227 19.3105 23.829 19.1131C23.431 18.9156 21.4741 17.9598 21.1093 17.828C20.7444 17.6963 20.4791 17.6305 20.2137 18.0261C19.9482 18.421 19.186 19.3105 18.9537 19.574C18.7217 19.838 18.4893 19.8709 18.0914 19.6733C17.6932 19.4751 16.4114 19.0585 14.8906 17.7129C13.7074 16.6658 12.9086 15.3728 12.6765 14.9773C12.4443 14.5824 12.6516 14.3683 12.8512 14.1714C13.03 13.9944 13.2493 13.7102 13.4485 13.4796C13.647 13.2489 13.7132 13.0843 13.8459 12.8209C13.9787 12.5572 13.9123 12.3265 13.8129 12.1289C13.7132 11.9313 12.9398 9.9777 12.5858 9.19668Z" fill="white"/>
</g>
<defs>
<linearGradient id="paint0_linear_63_47" x1="1545.25" y1="3079.56" x2="1545.25" y2="0.552185" gradientUnits="userSpaceOnUse">
<stop stop-color="#1FAF38"/>
<stop offset="1" stop-color="#60D669"/>
</linearGradient>
<linearGradient id="paint1_linear_63_47" x1="1600.1" y1="3189.42" x2="1600.1" y2="0" gradientUnits="userSpaceOnUse">
<stop stop-color="#F9F9F9"/>
<stop offset="1" stop-color="white"/>
</linearGradient>
<clipPath id="clip0_63_47">
<rect width="32" height="32" fill="white" transform="translate(0.5)"/>
</clipPath>
</defs>
</svg>
