<svg width="48" height="48" viewBox="0 0 48 48" fill="none" xmlns="http://www.w3.org/2000/svg">
<g clip-path="url(#clip0_63_484)">
<path d="M36.75 0H11.25C5.0368 0 0 5.0368 0 11.25V36.75C0 42.9632 5.0368 48 11.25 48H36.75C42.9632 48 48 42.9632 48 36.75V11.25C48 5.0368 42.9632 0 36.75 0Z" fill="#242938"/>
<path d="M24.0002 27.5534C25.9322 27.5534 27.4982 25.9872 27.4982 24.0554C27.4982 22.1236 25.9322 20.5574 24.0002 20.5574C22.0682 20.5574 20.5022 22.1236 20.5022 24.0554C20.5022 25.9872 22.0684 27.5534 24.0002 27.5534Z" fill="#00D8FF"/>
<path d="M24.0004 16.9431C28.6969 16.9431 33.0598 17.617 36.3495 18.7497C40.3131 20.1141 42.75 22.1824 42.75 24.0554C42.75 26.0071 40.1674 28.2044 35.9109 29.6146C32.6931 30.6807 28.4586 31.2372 24.0004 31.2372C19.4295 31.2372 15.1011 30.7148 11.8468 29.6027C7.72969 28.1956 5.25 25.9699 5.25 24.0554C5.25 22.1976 7.57687 20.1452 11.4847 18.7829C14.7866 17.6316 19.2572 16.9431 23.9996 16.9431H24.0004Z" stroke="#00D8FF" stroke-width="3.34163" stroke-linecap="round"/>
<path d="M17.8091 20.5196C20.1554 16.4512 22.9186 13.0084 25.5432 10.7246C28.7052 7.97269 31.7146 6.89494 33.3369 7.83037C35.0276 8.80537 35.6409 12.1406 34.7362 16.5322C34.0527 19.8523 32.4189 23.7984 30.1916 27.6606C27.908 31.6202 25.2933 35.1088 22.7045 37.3716C19.4287 40.2351 16.2616 41.2714 14.6032 40.3149C12.9939 39.3876 12.3785 36.3461 13.1506 32.2802C13.8029 28.8446 15.44 24.6279 17.8083 20.5196H17.8091Z" stroke="#00D8FF" stroke-width="3.34163" stroke-linecap="round"/>
<path d="M17.8146 27.671C15.4617 23.6071 13.8597 19.493 13.1911 16.0786C12.3861 11.9647 12.9552 8.81936 14.5761 7.88111C16.2653 6.90311 19.4609 8.03748 22.8138 11.0146C25.3488 13.2654 27.9518 16.651 30.1855 20.5094C32.4756 24.4653 34.192 28.4731 34.8597 31.8459C35.7046 36.1141 35.0208 39.3753 33.3638 40.3344C31.7562 41.2651 28.8141 40.2798 25.6771 37.5802C23.0266 35.2994 20.1908 31.7754 17.8146 27.671Z" stroke="#00D8FF" stroke-width="3.34163" stroke-linecap="round"/>
</g>
<defs>
<clipPath id="clip0_63_484">
<rect width="48" height="48" fill="white"/>
</clipPath>
</defs>
</svg>
