<svg width="20" height="20" viewBox="0 0 20 20" fill="none" xmlns="http://www.w3.org/2000/svg">
<g id="instagram-default">
<path id="Vector" d="M11.0276 -0.000242233C12.1526 0.00275777 12.7236 0.00875777 13.2166 0.0227578L13.4106 0.0297577C13.6346 0.0377577 13.8556 0.0477577 14.1226 0.0597577C15.1866 0.109758 15.9126 0.277758 16.5496 0.524758C17.2096 0.778758 17.7656 1.12276 18.3216 1.67776C18.8303 2.17749 19.2238 2.78223 19.4746 3.44976C19.7216 4.08676 19.8896 4.81276 19.9396 5.87776C19.9516 6.14376 19.9616 6.36476 19.9696 6.58976L19.9756 6.78376C19.9906 7.27576 19.9966 7.84676 19.9986 8.97176L19.9996 9.71776V11.0278C20.002 11.7572 19.9944 12.4866 19.9766 13.2158L19.9706 13.4098C19.9626 13.6348 19.9526 13.8558 19.9406 14.1218C19.8906 15.1868 19.7206 15.9118 19.4746 16.5498C19.2238 17.2173 18.8303 17.822 18.3216 18.3218C17.8219 18.8305 17.2171 19.2239 16.5496 19.4748C15.9126 19.7218 15.1866 19.8898 14.1226 19.9398L13.4106 19.9698L13.2166 19.9758C12.7236 19.9898 12.1526 19.9968 11.0276 19.9988L10.2816 19.9998H8.97259C8.24285 20.0023 7.51312 19.9947 6.78359 19.9768L6.58959 19.9708C6.3522 19.9618 6.11487 19.9514 5.87759 19.9398C4.81359 19.8898 4.08759 19.7218 3.44959 19.4748C2.78242 19.2238 2.17804 18.8303 1.67859 18.3218C1.16954 17.8221 0.775701 17.2174 0.524592 16.5498C0.277592 15.9128 0.109592 15.1868 0.0595922 14.1218L0.0295922 13.4098L0.0245923 13.2158C0.00615837 12.4866 -0.00217586 11.7572 -0.000407766 11.0278V8.97176C-0.00317566 8.24236 0.00415845 7.51295 0.0215923 6.78376L0.0285923 6.58976C0.0365923 6.36476 0.0465923 6.14376 0.0585922 5.87776C0.108592 4.81276 0.276592 4.08776 0.523592 3.44976C0.775287 2.78196 1.16982 2.17719 1.67959 1.67776C2.17875 1.16931 2.78278 0.775831 3.44959 0.524758C4.08759 0.277758 4.81259 0.109758 5.87759 0.0597577C6.14359 0.0477577 6.36559 0.0377577 6.58959 0.0297577L6.78359 0.0237577C7.51278 0.00599047 8.24219 -0.00167693 8.97159 0.000757694L11.0276 -0.000242233ZM9.99959 4.99976C8.67351 4.99976 7.40174 5.52654 6.46406 6.46422C5.52638 7.40191 4.99959 8.67368 4.99959 9.99976C4.99959 11.3258 5.52638 12.5976 6.46406 13.5353C7.40174 14.473 8.67351 14.9998 9.99959 14.9998C11.3257 14.9998 12.5974 14.473 13.5351 13.5353C14.4728 12.5976 14.9996 11.3258 14.9996 9.99976C14.9996 8.67368 14.4728 7.40191 13.5351 6.46422C12.5974 5.52654 11.3257 4.99976 9.99959 4.99976ZM9.99959 6.99976C10.3936 6.99969 10.7837 7.07722 11.1477 7.22793C11.5117 7.37863 11.8424 7.59956 12.1211 7.87808C12.3997 8.15661 12.6207 8.48729 12.7715 8.85125C12.9224 9.2152 13 9.60529 13.0001 9.99926C13.0002 10.3932 12.9226 10.7833 12.7719 11.1473C12.6212 11.5113 12.4003 11.8421 12.1218 12.1207C11.8432 12.3993 11.5126 12.6204 11.1486 12.7712C10.7847 12.922 10.3946 12.9997 10.0006 12.9998C9.20494 12.9998 8.44188 12.6837 7.87927 12.1211C7.31666 11.5585 7.00059 10.7954 7.00059 9.99976C7.00059 9.20411 7.31666 8.44105 7.87927 7.87844C8.44188 7.31583 9.20494 6.99976 10.0006 6.99976M15.2506 3.49976C14.9191 3.49976 14.6011 3.63145 14.3667 3.86587C14.1323 4.10029 14.0006 4.41824 14.0006 4.74976C14.0006 5.08128 14.1323 5.39922 14.3667 5.63364C14.6011 5.86806 14.9191 5.99976 15.2506 5.99976C15.5821 5.99976 15.9001 5.86806 16.1345 5.63364C16.3689 5.39922 16.5006 5.08128 16.5006 4.74976C16.5006 4.41824 16.3689 4.10029 16.1345 3.86587C15.9001 3.63145 15.5821 3.49976 15.2506 3.49976Z" fill="#27331B"/>
</g>
</svg>
