<svg width="123" height="16" viewBox="0 0 123 16" fill="none" xmlns="http://www.w3.org/2000/svg">
<g id="logo">
<g id="TALES">
<path d="M0 2.57428V0.212625H12.4082V2.57428H7.60133V15.7646H4.80683V2.57428H0Z" fill="#FFBF00"/>
<path d="M14.9179 15.7646H11.9108L17.3859 0.212625H20.8638L26.3465 15.7646H23.3393L19.1856 3.40199H19.0641L14.9179 15.7646ZM15.0166 9.66682H23.2178V11.9298H15.0166V9.66682Z" fill="#FFBF00"/>
<path d="M28.3949 15.7646V0.212625H31.2122V13.4029H38.0617V15.7646H28.3949Z" fill="#FFBF00"/>
<path d="M40.5069 15.7646V0.212625H50.6217V2.57428H43.3242V6.79639H50.0978V9.15804H43.3242V13.4029H50.6825V15.7646H40.5069Z" fill="#FFBF00"/>
<path d="M61.9478 4.4879C61.8769 3.82471 61.5782 3.30834 61.0517 2.93878C60.5303 2.56921 59.8519 2.38443 59.0166 2.38443C58.4294 2.38443 57.9256 2.47303 57.5055 2.65021C57.0853 2.8274 56.7638 3.06787 56.541 3.37162C56.3183 3.67537 56.2044 4.02215 56.1993 4.41196C56.1993 4.73596 56.2727 5.01693 56.4196 5.25486C56.5714 5.4928 56.7765 5.6953 57.0346 5.86236C57.2928 6.02436 57.5789 6.16105 57.8927 6.27243C58.2066 6.3838 58.523 6.47746 58.842 6.55339L60.3 6.91789C60.8872 7.05458 61.4517 7.23936 61.9934 7.47224C62.5401 7.70511 63.0286 7.99873 63.459 8.35311C63.8943 8.70748 64.2386 9.13526 64.4917 9.63645C64.7448 10.1376 64.8714 10.7249 64.8714 11.3982C64.8714 12.3094 64.6385 13.1118 64.1728 13.8054C63.707 14.4939 63.0337 15.0331 62.1528 15.4229C61.277 15.8076 60.2164 16 58.9711 16C57.7611 16 56.7106 15.8127 55.8196 15.4381C54.9337 15.0634 54.2402 14.5167 53.739 13.7978C53.2428 13.0789 52.9745 12.2031 52.934 11.1704H55.7057C55.7462 11.7121 55.9133 12.1626 56.2069 12.5221C56.5006 12.8815 56.8828 13.1498 57.3536 13.327C57.8295 13.5042 58.361 13.5928 58.9483 13.5928C59.5608 13.5928 60.0975 13.5017 60.5581 13.3194C61.0239 13.1321 61.3884 12.8739 61.6516 12.5449C61.9149 12.2107 62.049 11.8209 62.0541 11.3754C62.049 10.9704 61.9301 10.6363 61.6972 10.373C61.4643 10.1047 61.1378 9.88198 60.7176 9.70479C60.3025 9.52254 59.8165 9.36054 59.2596 9.21879L57.4903 8.76317C56.2095 8.43411 55.197 7.93545 54.4528 7.2672C53.7136 6.59389 53.3441 5.70036 53.3441 4.58662C53.3441 3.6703 53.5922 2.8679 54.0883 2.1794C54.5895 1.4909 55.2704 0.956811 56.131 0.577124C56.9916 0.192375 57.9661 0 59.0546 0C60.1582 0 61.1251 0.192375 61.9554 0.577124C62.7907 0.956811 63.4463 1.48584 63.9222 2.16421C64.398 2.83753 64.6436 3.61209 64.6588 4.4879H61.9478Z" fill="#FFBF00"/>
</g>
<g id="Group">
<path id="Vector" d="M76.9055 6.54972H72.5629V0H68.8713V16H72.5629V9.45028H76.9055V16H80.6004V0H76.9055V6.54972Z" fill="black"/>
<path id="Vector_2" d="M82.9731 16H94.709V13.0994H86.6994V9.45028H93.1786V6.54972H86.6994V2.90055H94.709V0H82.9731V16Z" fill="black"/>
<g id="Group_2">
<path id="Vector_3" d="M100.802 0H97.0815V16H100.802V0Z" fill="black"/>
<path id="Vector_4" d="M108.818 0H105.097V16H108.818V0Z" fill="black"/>
<path id="Vector_5" d="M100.802 16H97.0815L105.097 0H108.817L100.802 16Z" fill="black"/>
</g>
<g id="Group_3">
<path id="Vector_6" d="M114.911 0H111.19V16H114.911V0Z" fill="black"/>
<path id="Vector_7" d="M122.925 0H119.205V16H122.925V0Z" fill="black"/>
<path id="Vector_8" d="M114.911 16H111.19L119.205 0H122.926L114.911 16Z" fill="black"/>
</g>
</g>
</g>
</svg>
