<svg width="20" height="20" viewBox="0 0 20 20" fill="none" xmlns="http://www.w3.org/2000/svg">
<g id="behance-default" clip-path="url(#clip0_63_27)">
<g id="Group 3">
<path id="Vector" d="M4.85303 8.607V7.002C4.85303 6.907 4.85303 6.869 4.97703 6.869C6.04003 6.869 6.90403 6.806 7.33303 7.059C7.76303 7.311 7.78103 7.659 7.78803 7.763C7.79503 7.867 7.79203 8.016 7.59203 8.379C7.39203 8.742 6.49703 8.749 5.85103 8.749H4.99603C4.89103 8.749 4.85303 8.711 4.85303 8.607ZM7.79903 10.289C7.89807 10.4154 7.96877 10.5617 8.00632 10.7178C8.04387 10.874 8.0474 11.0364 8.01667 11.194C7.98594 11.3516 7.92167 11.5008 7.82821 11.6314C7.73476 11.7621 7.61431 11.871 7.47503 11.951C7.27044 12.0371 7.05098 12.0823 6.82903 12.084H4.98603C4.89103 12.084 4.85303 12.084 4.85303 11.961V10.061C4.85303 9.966 4.85303 9.928 4.97703 9.928H6.20203C6.96203 9.928 7.43703 9.862 7.79903 10.289Z" fill="#FFBF00"/>
<path id="Vector_2" d="M14.8595 9.65026C14.8073 9.52703 14.728 9.41714 14.6275 9.32873C14.527 9.24031 14.4079 9.17563 14.279 9.13949C14.0214 9.06911 13.7518 9.0542 13.488 9.09575C13.2242 9.1373 12.9723 9.23436 12.7488 9.38051C12.526 9.60556 12.3821 9.89664 12.3385 10.2103C12.3385 10.32 12.3385 10.3405 12.4688 10.3405H14.8995C15.0195 10.3405 15.0195 10.3405 15.0093 10.1897C14.9978 10.0013 14.9474 9.81738 14.8595 9.65026ZM14.8595 9.65026C14.8073 9.52703 14.7269 9.41714 14.6265 9.32873C14.526 9.24031 14.4079 9.17563 14.279 9.13949C14.0214 9.06911 13.7518 9.0542 13.488 9.09575C13.2242 9.1373 12.9723 9.23436 12.7488 9.38051C12.526 9.60556 12.3811 9.89664 12.3375 10.2103C12.3375 10.32 12.3375 10.3405 12.4677 10.3405H14.8995C15.0195 10.3405 15.0195 10.3405 15.0093 10.1897C14.9978 10.0013 14.9454 9.81738 14.8575 9.65026M15.999 0H3.99902C2.93816 0 1.92074 0.421427 1.1706 1.17157C0.420451 1.92172 -0.000976562 2.93913 -0.000976562 4V16C-0.000976562 17.0609 0.420451 18.0783 1.1706 18.8284C1.92074 19.5786 2.93816 20 3.99902 20H15.999C17.0599 20 18.0773 19.5786 18.8275 18.8284C19.5776 18.0783 19.999 17.0609 19.999 16V4C19.999 2.93913 19.5776 1.92172 18.8275 1.17157C18.0773 0.421427 17.0599 0 15.999 0ZM12.079 6.36923C12.079 6.29026 12.079 6.25949 12.1693 6.25949H15.4093V7.10051C15.4093 7.10051 15.4124 7.16 15.359 7.16H12.2195C12.079 7.16 12.079 7.16 12.079 7.02051V6.36923ZM9.07902 13.72C7.84825 14.3897 5.77954 14.12 3.32928 14.12V5.82974H7.23902C8.23902 5.82974 9.42877 6.08 9.74877 7.13949C9.91493 7.60224 9.90482 8.10998 9.72036 8.56574C9.5359 9.0215 9.19001 9.39335 8.74877 9.61026C9.15549 9.76077 9.51058 10.0246 9.77201 10.3707C10.0334 10.7167 10.1903 11.1304 10.2239 11.5627C10.2576 11.9951 10.1667 12.4281 9.96197 12.8104C9.75725 13.1927 9.44729 13.5083 9.06877 13.72H9.07902ZM16.5293 11.36H12.5293C12.4195 11.36 12.319 11.4195 12.3385 11.56C12.4585 12.1497 12.7283 12.7703 13.3395 12.8605C13.6623 12.9566 14.008 12.9418 14.3214 12.8186C14.6348 12.6953 14.8979 12.4707 15.0688 12.1805C15.0688 12.1805 15.119 12.12 15.1488 12.12H16.4493C16.4493 12.12 16.5293 12.12 16.5088 12.1897C16.3716 12.5781 16.1687 12.94 15.9088 13.2595C15.5612 13.5915 15.1418 13.8389 14.6831 13.9826C14.2244 14.1263 13.7387 14.1623 13.2638 14.0879C12.789 14.0135 12.3376 13.8307 11.9448 13.5536C11.5521 13.2765 11.2284 12.9127 10.999 12.4903C10.8579 12.2086 10.77 11.9033 10.7395 11.5897C10.5612 10.8016 10.6975 9.97502 11.1195 9.28594C11.5416 8.59686 12.2159 8.09976 12.999 7.90051C15.2688 7.41026 16.7088 8.97026 16.7088 11.1703C16.7121 11.196 16.7095 11.2221 16.7012 11.2467C16.6928 11.2712 16.679 11.2935 16.6606 11.3119C16.6423 11.3302 16.62 11.3441 16.5954 11.3524C16.5709 11.3608 16.5447 11.3634 16.519 11.36H16.5293ZM14.2893 9.13949C14.0319 9.0681 13.7621 9.0534 13.4985 9.09641C13.2349 9.13744 12.999 9.18769 12.759 9.38051C12.519 9.57231 12.3918 9.89641 12.3488 10.2103C12.3488 10.32 12.3488 10.3405 12.479 10.3405H14.8995C15.0195 10.3405 15.0195 10.3405 15.0093 10.1897C14.9978 10.0013 14.9474 9.81738 14.8595 9.65026C14.8073 9.52703 14.728 9.41714 14.6275 9.32873C14.527 9.24031 14.4079 9.17563 14.279 9.13949H14.2893Z" fill="#FFBF00"/>
</g>
</g>
<defs>
<clipPath id="clip0_63_27">
<rect width="20" height="20" fill="white" transform="translate(-0.000976562)"/>
</clipPath>
</defs>
</svg>
