<svg width="20" height="20" viewBox="0 0 20 20" fill="none" xmlns="http://www.w3.org/2000/svg">
<g id="linkedin-default" clip-path="url(#clip0_63_25)">
<path id="Vector" d="M18.4606 0H1.53749C1.12946 0 0.738146 0.162087 0.449628 0.450605C0.161111 0.739122 -0.000976562 1.13044 -0.000976562 1.53846V18.4615C-0.000976562 18.8696 0.161111 19.2609 0.449628 19.5494C0.738146 19.8379 1.12946 20 1.53749 20H18.4606C18.8686 20 19.2599 19.8379 19.5484 19.5494C19.8369 19.2609 19.999 18.8696 19.999 18.4615V1.53846C19.999 1.13044 19.8369 0.739122 19.5484 0.450605C19.2599 0.162087 18.8686 0 18.4606 0ZM6.12979 18.1962H3.05287V7.42692H6.12979V18.1962ZM4.59133 6.27308C3.52672 6.27308 2.66825 5.41308 2.66825 4.35C2.66825 3.28692 3.52672 2.42692 4.59133 2.42692C5.65595 2.42692 6.51441 3.28846 6.51441 4.35C6.51441 5.41154 5.65441 6.27308 4.59133 6.27308ZM16.899 18.1962H13.8221V11.6577C13.8221 11.35 13.5113 10.8469 13.2929 10.7254C13.0044 10.5638 12.3236 10.5485 12.0121 10.6992L10.7444 11.3092V18.1969H7.66749V7.42769H10.7444V7.90077C11.9613 7.34462 13.6521 7.39923 14.7983 8.04231C16.0136 8.72308 16.8983 10.2446 16.8983 11.6577L16.899 18.1962Z" fill="#27331B"/>
</g>
<defs>
<clipPath id="clip0_63_25">
<rect width="20" height="20" fill="white" transform="translate(-0.000976562)"/>
</clipPath>
</defs>
</svg>
